<?xml version="1.0" encoding="iso-8859-1"?>
<!-- Uploaded to: SVG Repo, www.svgrepo.com, Generator: SVG Repo Mixer Tools -->
<svg fill="#000000" version="1.1" id="Layer_1" xmlns="http://www.w3.org/2000/svg" xmlns:xlink="http://www.w3.org/1999/xlink" 
	 viewBox="0 0 512 512" xml:space="preserve">
<g>
	<g>
		<path d="M460.635,249.616l-29.904,113.28h-35.87c-3.765-23.367-24.065-41.273-48.478-41.273s-44.713,17.906-48.478,41.273h-57.578
			v15.674h57.579c3.765,23.367,24.065,41.273,48.478,41.273s44.713-17.906,48.478-41.273h47.942l32.985-124.954L460.635,249.616z
			 M346.384,404.17c-18.437,0-33.437-15-33.437-33.437c0-18.437,15-33.437,33.437-33.437s33.437,15,33.437,33.437
			C379.82,389.17,364.821,404.17,346.384,404.17z"/>
	</g>
</g>
<g>
	<g>
		<rect x="13.584" y="209.293" width="486.922" height="15.673"/>
	</g>
</g>
<g>
	<g>
		<path d="M165.616,321.623c-24.412,0-44.713,17.906-48.478,41.273H83.369L53.672,249.627l-15.161,3.975L71.275,378.57h45.864
			c3.765,23.367,24.065,41.273,48.478,41.273c27.08,0,49.11-22.031,49.11-49.11S192.696,321.623,165.616,321.623z M165.616,404.17
			c-18.437,0-33.437-15-33.437-33.437c0-18.437,14.999-33.437,33.437-33.437s33.437,15,33.437,33.437
			C199.053,389.17,184.054,404.17,165.616,404.17z"/>
	</g>
</g>
<g>
	<g>
		<path d="M480.645,186.308l-40.271-47.02h-37.454l-47.131-47.131l-49.263,49.263l-49.263-49.263l-49.48,49.48l-49.48-49.48
			l-47.131,47.131H73.716l-40.272,47.02H0v15.673h512v-15.673H480.645z M54.081,186.308l26.848-31.347h14.568l-30.659,30.659
			l0.688,0.688H54.081z M86.315,186.308l71.987-71.986l38.398,38.397l-32.902,32.902l0.688,0.688H86.315z M185.276,186.308
			l71.987-71.987l71.987,71.987H185.276z M350.041,186.309l0.688-0.688l-33.12-33.12l38.18-38.18l71.987,71.987H350.041z
			 M448.566,186.308l0.688-0.688l-30.659-30.659h14.567l26.848,31.347H448.566z"/>
	</g>
</g>
</svg>